PathFileType	4	(X/Y/Z)	C:\Users\chris\Documents\GitHub\baseballds\vids\pitch5_Sports2D\pitch5_Sports2D_m_person06.trc
DataRate	CameraRate	NumFrames	NumMarkers	Units	OrigDataRate	OrigDataStartFrame	OrigNumFrames
30	30	8	22	m	30	55	149
Frame#	Time	Hip			RHip			RKnee			RAnkle			RBigToe			RSmallToe			RHeel			LHip			LKnee			LAnkle			LBigToe			LSmallToe			LHeel			Neck			Head			Nose			RShoulder			RElbow			RWrist			LShoulder			LElbow			LWrist		
		X1	Y1	Z1	X2	Y2	Z2	X3	Y3	Z3	X4	Y4	Z4	X5	Y5	Z5	X6	Y6	Z6	X7	Y7	Z7	X8	Y8	Z8	X9	Y9	Z9	X10	Y10	Z10	X11	Y11	Z11	X12	Y12	Z12	X13	Y13	Z13	X14	Y14	Z14	X15	Y15	Z15	X16	Y16	Z16	X17	Y17	Z17	X18	Y18	Z18	X19	Y19	Z19	X20	Y20	Z20	X21	Y21	Z21	X22	Y22	Z22
55	1.8333333333333333	2.115536253474769	1.0640586682061133	0.0	2.1326657936669196	1.0550664265813925	0.0	2.251426631949545	0.8775996535139815	0.0	2.3064733188980995	0.6845211564972541	0.0	2.3921315914574994	0.6334900085061783	0.0	2.377794163566286	0.6249490184737975	0.0	2.293500006493719	0.6511327545735095	0.0	2.091385007665251	1.0663928992701155	0.0	2.02246470634458	0.9103950480330807	0.0	1.8727165635698062	0.8293025582741171	0.0	1.8323487262203055	0.7514153170145244	0.0	1.8222237011296547	0.7625564909580514	0.0	1.8429937412380997	0.8314680445576942	0.0	2.3168515388037485	1.2210687437681105	0.0	2.4228550299351346	1.316282372079337	0.0	2.4085093409198173	1.2344432775002865	0.0	2.2534322181279736	1.2095292363329968	0.0	2.1786980256057435	1.0865225248463206	0.0	2.2615534100940407	1.023420744327739	0.0	2.345458872311548	1.1916318184593937	0.0	2.3371836199438167	1.0808751550744857	0.0	2.346652894652222	1.0078396677432016	0.0
56	1.8666666666666667	2.132279601058306	1.067619694415211	0.0	2.1471909377442873	1.0614242791313626	0.0	2.257222244198258	0.8792726572817835	0.0	2.3081677089177415	0.6820017137968301	0.0	2.3935512647847927	0.6329038090497872	0.0	2.3797858105390843	0.624474214011094	0.0	2.2947839211793344	0.64950801828041	0.0	2.1118292503634453	1.0695052588896217	0.0	2.0343236672198968	0.9243437976593921	0.0	1.8710561808949635	0.8844716028494262	0.0	1.8247937375493237	0.8315655543139682	0.0	1.8178535395495912	0.8384021466296698	0.0	1.8428540142914571	0.8959433229010135	0.0	2.342560691492535	1.220781758325471	0.0	2.443944605439596	1.320001648603691	0.0	2.436378939804026	1.2405853786528618	0.0	2.2741651336426747	1.214622591841422	0.0	2.1827804683058756	1.0965752152438393	0.0	2.2470891076201305	1.0208628060118188	0.0	2.368875746757293	1.1805917793749485	0.0	2.310332867771875	1.0791043629241883	0.0	2.3013666019495336	1.00636880137007	0.0
57	1.9	2.146722531209647	1.0713514473061705	0.0	2.159711207662884	1.0689972433237458	0.0	2.2597327040844997	0.8771776093553248	0.0	2.3090999312154277	0.6777878415164202	0.0	2.395323557289743	0.632567579899838	0.0	2.3810401920835447	0.6236105315031798	0.0	2.2947194023349273	0.6483639397274439	0.0	2.1322385244977466	1.074429895105847	0.0	2.046921319211785	0.9363643512671259	0.0	1.8748242129227852	0.9442716394129785	0.0	1.8215847309625632	0.913200970350109	0.0	1.8171674846706365	0.9156009675754234	0.0	1.850028052120883	0.9640713151586193	0.0	2.3635444822774243	1.222748071663622	0.0	2.4636206333012955	1.3243942494951764	0.0	2.458112409445628	1.2463774586831866	0.0	2.2920913084457335	1.2173061165858274	0.0	2.1900706265624796	1.1047292397603845	0.0	2.239081176476271	1.02053883423753	0.0	2.3857234753512744	1.1770346185858296	0.0	2.304239227805254	1.0870269888869435	0.0	2.2803439240045673	1.0117136406444203	0.0
58	1.9333333333333333	2.1592460716065256	1.0750297646461757	0.0	2.1694989041127846	1.0762854772210815	0.0	2.2614620762695274	0.874375608770632	0.0	2.3095263916045097	0.6749623925235398	0.0	2.3973312748812305	0.6325730781669812	0.0	2.381313726937002	0.6220945166886183	0.0	2.2931567952311394	0.6479305472849007	0.0	2.1504338750380145	1.0795788760291867	0.0	2.0587446632597626	0.9481521028360252	0.0	1.886535744899564	0.9996208848731726	0.0	1.821988853366933	0.9834578383122965	0.0	1.8207634855032153	0.9828642157449875	0.0	1.8675279885351235	1.0239222949194307	0.0	2.378044913815835	1.2297632857035241	0.0	2.479609988629104	1.3326999328037608	0.0	2.4733622521203733	1.2542738466299759	0.0	2.305744606685268	1.2208723076796022	0.0	2.197611931127189	1.1104323677442158	0.0	2.2439309743309175	1.0217199865556623	0.0	2.3968961806049904	1.183264863065538	0.0	2.316752265951812	1.0975868603356187	0.0	2.2890213149945473	1.0182178926119478	0.0
59	1.9666666666666666	2.170875527253525	1.077049920621348	0.0	2.178275412552135	1.0799933273226987	0.0	2.263837096461602	0.8722827543117673	0.0	2.309317216978586	0.6746534945501197	0.0	2.398730156654064	0.6325847431807676	0.0	2.380823387277958	0.6203949606631747	0.0	2.291348860161124	0.647060168614291	0.0	2.1649909678812143	1.0826097762608071	0.0	2.070150910971194	0.9603120639298002	0.0	1.907545431860925	1.04417308227394	0.0	1.8303610826885635	1.0381458430167345	0.0	1.8336867767032738	1.0348456107065453	0.0	1.8937951787392684	1.0702701878399985	0.0	2.387392469768551	1.2417912628107612	0.0	2.4881657323895885	1.346926212394725	0.0	2.483803547678333	1.2670329187506055	0.0	2.3147858878759617	1.2264366749147675	0.0	2.2035066783417414	1.113590467494016	0.0	2.2564910372139226	1.0223434212778388	0.0	2.4040455753646346	1.198223767294949	0.0	2.3368208163905595	1.106869342785462	0.0	2.321411272041722	1.022147022468442	0.0
60	2.0	2.1828274507774488	1.0775071596030392	0.0	2.1877643362258485	1.0805457065698032	0.0	2.2668774448334177	0.8709603442190559	0.0	2.308373879791213	0.675833657322721	0.0	2.3983194618861714	0.6315886028411113	0.0	2.3790884743362852	0.618370009928358	0.0	2.2901070498353153	0.646036812107166	0.0	2.177547632481316	1.0840432047377941	0.0	2.0836723183226527	0.9709056375222418	0.0	1.9351288183887996	1.0749131556838993	0.0	1.8505384551181776	1.078562794535462	0.0	1.8581759280043246	1.0723584637666417	0.0	1.9250985563918772	1.1028255388575103	0.0	2.392730435619586	1.2567034520651386	0.0	2.488418015930059	1.36712614105524	0.0	2.488815048703629	1.2853383139737644	0.0	2.320568556435436	1.2344088256640888	0.0	2.2091670822996554	1.1171990235501275	0.0	2.2710359101239175	1.0249682110116352	0.0	2.409667915442903	1.2169613871192062	0.0	2.3554059232763422	1.1143736876272243	0.0	2.3650098244631823	1.0218206070333897	0.0
61	2.033333333333333	2.196306634929147	1.0780780630283224	0.0	2.1985145391255325	1.081499297200493	0.0	2.269602360145435	0.8700044400979646	0.0	2.307111832837968	0.6765083191639897	0.0	2.3966567787873716	0.6293432934954861	0.0	2.37685276259438	0.6161380608153705	0.0	2.2894079763090573	0.6450416575825895	0.0	2.191161938954252	1.085608170890163	0.0	2.101590389452567	0.9767834554737066	0.0	1.9652913620382957	1.0915504504327709	0.0	1.8788823422128995	1.107030179910154	0.0	1.8897700297538886	1.0976768357022217	0.0	1.9583794096763685	1.1220845988956303	0.0	2.394444068373717	1.2727992885772024	0.0	2.481957305493173	1.3918361241262611	0.0	2.4876655936338166	1.3080028576020895	0.0	2.3240190148178503	1.2452772134558245	0.0	2.2162425911888457	1.1237937757084426	0.0	2.287229545382894	1.032120095179214	0.0	2.415552586960483	1.2344525921401224	0.0	2.370796877892242	1.1221158525745805	0.0	2.406099650019786	1.0259435139037003	0.0
62	2.0666666666666664	2.2114286901921	1.079681939727749	0.0	2.210076773214013	1.0840090549115378	0.0	2.271926551304425	0.8686365626093007	0.0	2.306411694708348	0.6752816075893997	0.0	2.3962133252048843	0.6268209391580812	0.0	2.37651766309725	0.6146956934919162	0.0	2.2889533887467217	0.6435025422415175	0.0	2.2070935773895264	1.0871998902406703	0.0	2.1241129523721223	0.9765382650522744	0.0	1.9953913065348534	1.0953760365731164	0.0	1.9098211627718504	1.1205903343205565	0.0	1.9230803332945596	1.1084159830136564	0.0	1.989593396940109	1.1278062812031353	0.0	2.3937760896903275	1.2901755199747897	0.0	2.470636296337929	1.4182094254720692	0.0	2.4821397106939256	1.3331930367150304	0.0	2.325037865244607	1.2592638612589035	0.0	2.2245267270611926	1.1330613127046676	0.0	2.305130718943987	1.041619888862831	0.0	2.421885647335961	1.2496523326664766	0.0	2.386659479102946	1.1339616655374527	0.0	2.434331347408232	1.05155544153817	0.0
